grf
version=1
nRows=12
nColumns=37
inDegrees=no
endheader
time	ground_force_1_vx	ground_force_1_vy	ground_force_1_vz	ground_force_1_px	ground_force_1_py	ground_force_1_pz	ground_moment_1_mx	ground_moment_1_my	ground_moment_1_mz	ground_force_2_vx	ground_force_2_vy	ground_force_2_vz	ground_force_2_px	ground_force_2_py	ground_force_2_pz	ground_moment_2_mx	ground_moment_2_my	ground_moment_2_mz	ground_force_3_vx	ground_force_3_vy	ground_force_3_vz	ground_force_3_px	ground_force_3_py	ground_force_3_pz	ground_moment_3_mx	ground_moment_3_my	ground_moment_3_mz	ground_force_4_vx	ground_force_4_vy	ground_force_4_vz	ground_force_4_px	ground_force_4_py	ground_force_4_pz	ground_moment_4_mx	ground_moment_4_my	ground_moment_4_mz
      5.52000000	      0.00000000	     -0.00000000	      0.00000000	      0.00000000	      0.00000000	      0.00000000	      0.00000000	      0.00000000	      0.00000000	    -13.53765678	      8.88753128	   -714.45776367	   -219.14509576	  -1129.80616002	      0.00000000	      0.00000000	     -0.00000000	  -1540.60097820	      0.00000000	     -0.00000000	      0.00000000	      0.00000000	      0.00000000	      0.00000000	      0.00000000	      0.00000000	      0.00000000	    -34.96278619	     16.44888230	     74.12376404	    609.28186059	   -564.65987478	      0.00000000	      0.00000000	     -0.00000000	   -255.09326317
      5.53000000	      0.00000000	     -0.00000000	      0.00000000	      0.00000000	      0.00000000	      0.00000000	      0.00000000	      0.00000000	      0.00000000	    -13.71647930	      9.19295692	   -707.78497314	   -218.37009804	  -1129.16748772	      0.00000000	      0.00000000	     -0.00000000	  -1501.38338407	      0.00000000	     -0.00000000	      0.00000000	      0.00000000	      0.00000000	      0.00000000	      0.00000000	      0.00000000	      0.00000000	    -34.79023219	     16.28145141	     76.53140259	    601.90369600	   -561.07486064	      0.00000000	      0.00000000	     -0.00000000	   -170.59322634
      5.54000000	      0.00000000	     -0.00000000	      0.00000000	      0.00000000	      0.00000000	      0.00000000	      0.00000000	      0.00000000	      0.00000000	    -12.40334225	      9.88115883	   -702.75494385	   -217.50364311	  -1129.05241074	      0.00000000	      0.00000000	     -0.00000000	  -1390.97363484	      0.00000000	     -0.00000000	      0.00000000	      0.00000000	      0.00000000	      0.00000000	      0.00000000	      0.00000000	      0.00000000	    -34.97229244	     16.20654603	     74.07432556	    612.53685586	   -566.45196306	      0.00000000	      0.00000000	     -0.00000000	   -112.83817047
      5.55000000	      0.00000000	     -0.00000000	      0.00000000	      0.00000000	      0.00000000	      0.00000000	      0.00000000	      0.00000000	      0.00000000	    -11.85898495	      9.88146019	   -695.78833008	   -216.50312900	  -1129.15168482	      0.00000000	      0.00000000	     -0.00000000	  -1485.73844346	      0.00000000	     -0.00000000	      0.00000000	      0.00000000	      0.00000000	      0.00000000	      0.00000000	      0.00000000	      0.00000000	    -34.63497402	     16.19746320	     75.11517334	    605.88559281	   -565.62676162	      0.00000000	      0.00000000	     -0.00000000	   -123.79294760
      5.56000000	      0.00000000	     -0.00000000	      0.00000000	      0.00000000	      0.00000000	      0.00000000	      0.00000000	      0.00000000	      0.00000000	    -11.31204128	      9.51632881	   -692.30273438	   -215.88192711	  -1128.84269549	      0.00000000	      0.00000000	     -0.00000000	  -1491.89610715	      0.00000000	     -0.00000000	      0.00000000	      0.00000000	      0.00000000	      0.00000000	      0.00000000	      0.00000000	      0.00000000	    -34.79649210	     16.36587066	     77.18709564	    602.43082451	   -563.71843550	      0.00000000	      0.00000000	      0.00000000	   -109.50576722
      5.57000000	      0.00000000	     -0.00000000	      0.00000000	      0.00000000	      0.00000000	      0.00000000	      0.00000000	      0.00000000	      0.00000000	    -10.78000736	      8.91014957	   -691.84515381	   -215.42485204	  -1129.42309741	      0.00000000	      0.00000000	     -0.00000000	  -1286.18628266	      0.00000000	     -0.00000000	      0.00000000	      0.00000000	      0.00000000	      0.00000000	      0.00000000	      0.00000000	      0.00000000	    -34.89718867	     16.28169556	     76.10177612	    602.79884148	   -558.28652527	      0.00000000	      0.00000000	     -0.00000000	   -182.29289846
      5.58000000	      0.00000000	     -0.00000000	      0.00000000	      0.00000000	      0.00000000	      0.00000000	      0.00000000	      0.00000000	      0.00000000	     -9.71831036	      8.48146343	   -690.74188232	   -215.21489213	  -1128.64245110	      0.00000000	      0.00000000	     -0.00000000	  -1232.22822977	      0.00000000	     -0.00000000	      0.00000000	      0.00000000	      0.00000000	      0.00000000	      0.00000000	      0.00000000	      0.00000000	    -34.79662565	     15.92462844	     75.16779327	    606.52293596	   -561.93304243	      0.00000000	     -0.00000000	     -0.00000000	    -26.05121867
      5.59000000	      0.00000000	     -0.00000000	      0.00000000	      0.00000000	      0.00000000	      0.00000000	      0.00000000	      0.00000000	      0.00000000	     -8.57249451	      8.26153183	   -690.13549805	   -214.69215419	  -1128.52382893	      0.00000000	      0.00000000	     -0.00000000	  -1200.36720665	      0.00000000	     -0.00000000	      0.00000000	      0.00000000	      0.00000000	      0.00000000	      0.00000000	      0.00000000	      0.00000000	    -35.06771708	     16.27914735	     74.78416443	    609.02060589	   -565.32900452	      0.00000000	      0.00000000	      0.00000000	     37.83288414
      5.60000000	      0.00000000	     -0.00000000	      0.00000000	      0.00000000	      0.00000000	      0.00000000	      0.00000000	      0.00000000	      0.00000000	     -8.11546993	      7.47890091	   -693.00292969	   -214.23127101	  -1127.87912237	      0.00000000	      0.00000000	     -0.00000000	  -1068.81233147	      0.00000000	     -0.00000000	      0.00000000	      0.00000000	      0.00000000	      0.00000000	      0.00000000	      0.00000000	      0.00000000	    -34.79675532	     16.28450698	     75.42424011	    605.52480082	   -560.97993383	      0.00000000	      0.00000000	     -0.00000000	   -259.83294384
      5.61000000	      0.00000000	     -0.00000000	      0.00000000	      0.00000000	      0.00000000	      0.00000000	      0.00000000	      0.00000000	      0.00000000	     -8.03683186	      7.38469172	   -697.12518311	   -214.15871562	  -1128.12931710	      0.00000000	      0.00000000	     -0.00000000	  -1098.58672429	      0.00000000	     -0.00000000	      0.00000000	      0.00000000	      0.00000000	      0.00000000	      0.00000000	      0.00000000	      0.00000000	    -35.14452604	     16.01205370	     75.15340424	    604.47806557	   -564.65347092	      0.00000000	      0.00000000	      0.00000000	    117.47941238
      5.62000000	      0.00000000	     -0.00000000	      0.00000000	      0.00000000	      0.00000000	      0.00000000	      0.00000000	      0.00000000	      0.00000000	     -7.93973541	      6.86046743	   -702.53601074	   -213.29957334	  -1127.57290769	      0.00000000	      0.00000000	     -0.00000000	  -1217.36682557	      0.00000000	     -0.00000000	      0.00000000	      0.00000000	      0.00000000	      0.00000000	      0.00000000	      0.00000000	      0.00000000	    -34.97578287	     16.36949273	     75.12319946	    608.24275061	   -566.68654040	      0.00000000	      0.00000000	     -0.00000000	   -198.25778352
      5.63000000	      0.00000000	     -0.00000000	      0.00000000	      0.00000000	      0.00000000	      0.00000000	      0.00000000	      0.00000000	      0.00000000	     -8.91855049	      6.95217133	   -708.90142822	   -213.07655226	  -1127.17295412	      0.00000000	      0.00000000	     -0.00000000	  -1251.58921308	      0.00000000	     -0.00000000	      0.00000000	      0.00000000	      0.00000000	      0.00000000	      0.00000000	      0.00000000	      0.00000000	    -35.06291439	     16.19936868	     76.46044922	    603.12156786	   -564.52983940	      0.00000000	      0.00000000	     -0.00000000	    -68.35883616
